<mxfile host="app.diagrams.net" modified="2021-12-14T09:23:59.770Z" agent="5.0 (Windows NT 10.0; WOW64) AppleWebKit/537.36 (KHTML, like Gecko) Chrome/86.0.4240.198 Safari/537.36" etag="DXtI_tUjLUCPXmwouuYV" version="15.8.9" type="github">
  <diagram id="zrjkBYchFELFRn6vWbbr" name="Page-1">
    <mxGraphModel dx="716" dy="383" grid="1" gridSize="10" guides="1" tooltips="1" connect="1" arrows="1" fold="1" page="1" pageScale="1" pageWidth="850" pageHeight="1100" math="0" shadow="0">
      <root>
        <mxCell id="0" />
        <mxCell id="1" parent="0" />
        <mxCell id="hZlZhOdLHoeO5oLlv81B-6" style="edgeStyle=orthogonalEdgeStyle;rounded=0;orthogonalLoop=1;jettySize=auto;html=1;entryX=1;entryY=0.5;entryDx=0;entryDy=0;" edge="1" parent="1" source="hZlZhOdLHoeO5oLlv81B-1" target="hZlZhOdLHoeO5oLlv81B-2">
          <mxGeometry relative="1" as="geometry" />
        </mxCell>
        <mxCell id="hZlZhOdLHoeO5oLlv81B-1" value="Login Page" style="rounded=1;whiteSpace=wrap;html=1;" vertex="1" parent="1">
          <mxGeometry x="380" y="250" width="120" height="60" as="geometry" />
        </mxCell>
        <mxCell id="hZlZhOdLHoeO5oLlv81B-11" style="edgeStyle=orthogonalEdgeStyle;rounded=0;orthogonalLoop=1;jettySize=auto;html=1;entryX=0.5;entryY=0;entryDx=0;entryDy=0;" edge="1" parent="1" source="hZlZhOdLHoeO5oLlv81B-2" target="hZlZhOdLHoeO5oLlv81B-3">
          <mxGeometry relative="1" as="geometry">
            <mxPoint x="270" y="220" as="targetPoint" />
            <Array as="points">
              <mxPoint x="260" y="230" />
              <mxPoint x="610" y="230" />
            </Array>
          </mxGeometry>
        </mxCell>
        <mxCell id="hZlZhOdLHoeO5oLlv81B-13" value="Logout" style="edgeLabel;html=1;align=center;verticalAlign=middle;resizable=0;points=[];" vertex="1" connectable="0" parent="hZlZhOdLHoeO5oLlv81B-11">
          <mxGeometry x="-0.4421" relative="1" as="geometry">
            <mxPoint as="offset" />
          </mxGeometry>
        </mxCell>
        <mxCell id="hZlZhOdLHoeO5oLlv81B-15" style="edgeStyle=orthogonalEdgeStyle;rounded=0;orthogonalLoop=1;jettySize=auto;html=1;entryX=1;entryY=0.5;entryDx=0;entryDy=0;" edge="1" parent="1" source="hZlZhOdLHoeO5oLlv81B-2" target="hZlZhOdLHoeO5oLlv81B-3">
          <mxGeometry relative="1" as="geometry">
            <Array as="points">
              <mxPoint x="260" y="350" />
              <mxPoint x="690" y="350" />
              <mxPoint x="690" y="280" />
            </Array>
          </mxGeometry>
        </mxCell>
        <mxCell id="hZlZhOdLHoeO5oLlv81B-16" value="Go home" style="edgeLabel;html=1;align=center;verticalAlign=middle;resizable=0;points=[];" vertex="1" connectable="0" parent="hZlZhOdLHoeO5oLlv81B-15">
          <mxGeometry x="-0.4014" relative="1" as="geometry">
            <mxPoint as="offset" />
          </mxGeometry>
        </mxCell>
        <mxCell id="hZlZhOdLHoeO5oLlv81B-2" value="Admin page" style="rounded=1;whiteSpace=wrap;html=1;" vertex="1" parent="1">
          <mxGeometry x="200" y="250" width="120" height="60" as="geometry" />
        </mxCell>
        <mxCell id="hZlZhOdLHoeO5oLlv81B-8" style="edgeStyle=orthogonalEdgeStyle;rounded=0;orthogonalLoop=1;jettySize=auto;html=1;entryX=0.75;entryY=1;entryDx=0;entryDy=0;exitX=0.5;exitY=1;exitDx=0;exitDy=0;" edge="1" parent="1" source="hZlZhOdLHoeO5oLlv81B-3" target="hZlZhOdLHoeO5oLlv81B-1">
          <mxGeometry relative="1" as="geometry" />
        </mxCell>
        <mxCell id="hZlZhOdLHoeO5oLlv81B-12" value="Login" style="edgeLabel;html=1;align=center;verticalAlign=middle;resizable=0;points=[];" vertex="1" connectable="0" parent="hZlZhOdLHoeO5oLlv81B-8">
          <mxGeometry x="-0.1644" y="-4" relative="1" as="geometry">
            <mxPoint as="offset" />
          </mxGeometry>
        </mxCell>
        <mxCell id="hZlZhOdLHoeO5oLlv81B-3" value="User Page" style="rounded=1;whiteSpace=wrap;html=1;" vertex="1" parent="1">
          <mxGeometry x="550" y="250" width="120" height="60" as="geometry" />
        </mxCell>
      </root>
    </mxGraphModel>
  </diagram>
</mxfile>
